<?xml version="1.0" encoding="UTF-8" standalone="no"?>
<!-- Created with Inkscape (http://www.inkscape.org/) -->

<svg
   xmlns:dc="http://purl.org/dc/elements/1.1/"
   xmlns:cc="http://creativecommons.org/ns#"
   xmlns:rdf="http://www.w3.org/1999/02/22-rdf-syntax-ns#"
   xmlns:svg="http://www.w3.org/2000/svg"
   xmlns="http://www.w3.org/2000/svg"
   xmlns:sodipodi="http://sodipodi.sourceforge.net/DTD/sodipodi-0.dtd"
   xmlns:inkscape="http://www.inkscape.org/namespaces/inkscape"
   width="210mm"
   viewBox="0 0 210 100"
   version="1.1"
   id="svg3835"
   inkscape:version="0.92.3 (2405546, 2018-03-11)"
   sodipodi:docname="logo.svg">
  <defs
     id="defs3829" />
  <sodipodi:namedview
     id="base"
     pagecolor="#ffffff"
     bordercolor="#666666"
     borderopacity="1.0"
     inkscape:pageopacity="0.0"
     inkscape:pageshadow="2"
     inkscape:zoom="0.35"
     inkscape:cx="400"
     inkscape:cy="560"
     inkscape:document-units="mm"
     inkscape:current-layer="layer1"
     showgrid="false"
     inkscape:window-width="1366"
     inkscape:window-height="705"
     inkscape:window-x="-8"
     inkscape:window-y="-8"
     inkscape:window-maximized="1" />
  <metadata
     id="metadata3832">
    <rdf:RDF>
      <cc:Work
         rdf:about="">
        <dc:format>image/svg+xml</dc:format>
        <dc:type
           rdf:resource="http://purl.org/dc/dcmitype/StillImage" />
        <dc:title></dc:title>
      </cc:Work>
    </rdf:RDF>
  </metadata>
  <g
     inkscape:label="Capa 1"
     inkscape:groupmode="layer"
     id="layer1">
    <path
       sodipodi:type="star"
       id="path3837"
       sodipodi:sides="5"
       sodipodi:cx="14.363095"
       sodipodi:cy="16.541666"
       sodipodi:r1="12.851191"
       sodipodi:r2="6.4255948"
       sodipodi:arg1="0.48995733"
       sodipodi:arg2="1.1182759"
       inkscape:flatsided="false"
       inkscape:rounded="0"
       inkscape:randomized="0"
       d="M 25.702381,22.589285 17.172582,22.320512 12.1155,29.194785 9.7352657,20.999408 1.6347191,18.314104 8.6934529,13.517856 8.7441217,4.9839744 15.486893,10.215107 23.618755,7.6261815 20.727283,15.655447 Z"
       inkscape:transform-center-x="0.69454538"
       inkscape:transform-center-y="0.54771335"
       style="stroke-width:0.26458332" />
    <path
       sodipodi:type="star"
       id="path3848"
       sodipodi:sides="5"
       sodipodi:cx="63.5"
       sodipodi:cy="9.7380953"
       sodipodi:r1="17.647884"
       sodipodi:r2="8.8239422"
       sodipodi:arg1="2.3259007"
       sodipodi:arg2="2.9542193"
       inkscape:flatsided="false"
       inkscape:rounded="0"
       inkscape:randomized="0"
       d="M 51.404763,22.589285 54.830504,11.381809 47.540159,2.2060777 59.257714,2.0008502 65.731512,-7.7681372 69.547619,3.3125009 80.838992,6.4506661 71.47992,13.504105 71.984574,25.212585 62.384243,18.491211 Z"
       inkscape:transform-center-x="-0.68957461"
       inkscape:transform-center-y="-1.0158715"
       style="stroke-width:0.26458332" />
    <path
       sodipodi:type="star"
       id="path3859"
       sodipodi:sides="10"
       sodipodi:cx="23.618755"
       sodipodi:cy="7.6261811"
       sodipodi:r1="15.107481"
       sodipodi:r2="7.5537405"
       sodipodi:arg1="1.4324351"
       sodipodi:arg2="1.7465944"
       inkscape:flatsided="false"
       inkscape:rounded="0"
       inkscape:randomized="0"
       d="m 25.702382,22.589285 -3.40473,-7.525787 -5.788299,5.892814 1.669062,-8.08974 -8.146541,1.365109 6.105329,-5.5636868 -7.3930813,-3.6840198 8.2095683,-0.9124948 -3.815716,-7.3259789 7.178032,4.08723953 1.219123,-8.16966313 3.40473,7.52578725 5.788299,-5.89281365 -1.669062,8.08974 8.146541,-1.3651097 -6.10533,5.5636871 7.393082,3.6840199 -8.209569,0.912495 3.815717,7.325979 -7.178032,-4.08724 z"
       style="stroke-width:0.26458332" />
    <path
       sodipodi:type="star"
       id="path3861"
       sodipodi:sides="10"
       sodipodi:cx="47.540157"
       sodipodi:cy="2.2060778"
       sodipodi:r1="12.117957"
       sodipodi:r2="6.058979"
       sodipodi:arg1="2.4136713"
       sodipodi:arg2="2.7278306"
       inkscape:flatsided="false"
       inkscape:rounded="0"
       inkscape:randomized="0"
       d="M 38.493388,10.268388 41.992467,4.6421313 35.48226,3.4110658 41.620105,0.91603577 37.076839,-3.9065206 l 6.432163,1.5892131 -0.840952,-6.5719948 4.269613,5.0664309 3.182578,-5.8111544 0.476216,6.6084443 5.99047,-2.8306507 -3.499079,5.62625655 6.510207,1.23106545 -6.137845,2.4950301 4.543265,4.8225564 -6.432163,-1.5892132 0.840952,6.5719949 -4.269613,-5.066431 -3.182577,5.811154 -0.476216,-6.6084438 z"
       style="stroke-width:0.26458332" />
    <path
       id="path3863"
       d="m 39.77052,14.62869 c -0.06882,2.115464 -0.04221,4.232761 -0.03037,6.34895 -0.06838,1.539704 0.02273,3.037721 0.32013,4.545659 0.126576,1.262152 0.555177,2.451716 0.839853,3.679837 0.271997,1.401199 0.282356,2.825872 0.533813,4.229947 0.205425,1.531332 0.644959,3.01208 0.95368,4.522607 0.289446,1.524868 0.349096,3.077848 0.386649,4.625343 0.02442,1.515496 0.01754,3.031278 0.01495,4.54691 0.05523,1.448302 -0.0033,2.867244 -0.287703,4.287747 -0.226073,1.390764 -0.44305,2.775024 -0.739841,4.153345 -0.226833,1.362609 -0.66494,2.675183 -1.028475,4.00528 -0.375491,1.286534 -0.976162,2.481424 -1.419323,3.74464 -0.425802,1.121823 -0.952429,2.197071 -1.420275,3.300654 -0.575705,1.102333 -1.282465,2.131467 -1.909845,3.205551 -0.529524,1.143098 -1.266605,2.145054 -2.061784,3.112 -3.677182,3.206321 -7.89684,6.478754 -12.778932,7.23682 -1.445358,0.162682 -2.902899,0.150521 -4.355222,0.151249 -1.500434,-0.06969 -3.028413,0.144407 -4.504606,-0.161801 -1.30634,-0.29646 -2.4942853,-1.10441 -3.5656584,-1.894017 C 7.4901001,77.633657 6.8546175,76.459701 6.1353707,75.35098 5.3455038,74.150264 5.0890765,72.76358 4.9355478,71.362193 4.8155378,69.862001 4.8267995,68.355386 4.8276848,66.851579 4.7509919,65.237021 4.9574592,63.649224 5.3188462,62.08029 c 0.3028116,-1.503053 0.922152,-2.834333 1.6931116,-4.143695 0.8991409,-1.496965 2.123962,-2.735064 3.3598572,-3.950234 1.068742,-0.916821 2.269479,-1.660912 3.420287,-2.468325 4.694012,-2.575808 9.157122,-6.309185 14.470377,-7.654861 1.58347,-0.489508 3.147608,-1.05205 4.754443,-1.462588 1.420972,-0.15136 2.718316,-0.718224 4.120497,-0.965049 1.259507,-0.178102 2.447467,-0.71438 3.648125,-1.130268 1.350312,-0.715854 2.868361,-1.014413 4.176617,-1.809914 0.374791,-0.304268 0.864762,-0.35324 1.280129,-0.565595 0.187113,-0.09566 0.705074,-0.456811 0.522414,-0.352904 -15.133373,8.60883 -11.20336,6.621849 -7.884345,4.414674 3.811558,-2.628315 7.921651,-4.646602 11.925443,-7.053355 2.988124,-1.796219 -6.038012,3.487727 -9.067721,5.212887 -0.188005,0.107053 0.360966,-0.238604 0.541449,-0.357907 0.983774,-0.781437 2.012963,-1.487723 3.039149,-2.208303 1.023168,-0.644488 1.870557,-1.526939 2.780028,-2.317115 1.031814,-0.932648 1.690751,-2.163175 2.450917,-3.306553 0.770446,-0.987396 1.384985,-1.956448 1.684176,-3.179493 0.221494,-1.385498 0.299987,-2.804705 0.188799,-4.203794 -0.171048,-1.088958 -0.350525,-2.554115 -1.657839,-1.42495 3.080612,-1.721513 6.149951,-3.463357 9.241837,-5.16454 0.15254,-0.08393 -0.299429,0.184952 -0.419912,0.310638 -0.613966,0.640477 -0.705054,1.636528 -0.827596,2.462596 -0.120573,1.673805 -0.207788,3.365785 -0.06397,5.040248 0.174638,1.555317 0.543179,3.067334 0.911547,4.584066 0.359297,1.419424 0.921785,2.761985 1.422998,4.131858 0.663218,1.061519 0.904304,2.272876 1.276435,3.44401 0.493006,1.252849 0.683183,2.577245 0.799021,3.909287 0.272692,1.268283 0.548777,2.527035 0.695404,3.817967 0.333962,1.186272 0.49575,2.415883 0.805058,3.605818 0.43683,1.199626 0.595628,2.45918 0.769877,3.714919 0.376195,2.137434 -1.895308,1.501103 -9.923127,5.02376 -0.164695,0.07227 0.01648,-0.359349 0.02178,-0.539125 0.02965,-1.007391 -0.02051,-0.236543 0.07586,-1.352831 0.278805,-1.432726 0.395211,-2.893544 0.753346,-4.309395 0.316563,-1.242251 0.550291,-2.493034 0.917985,-3.722116 0.395409,-1.194345 0.949497,-2.329807 1.395135,-3.506695 0.512355,-1.374352 0.96217,-2.765266 1.571127,-4.100835 0.694725,-1.280102 1.252778,-2.625469 1.897417,-3.929158 0.720879,-1.279337 1.442138,-2.560505 2.179878,-3.831397 0.640604,-0.999154 1.263161,-2.007767 1.892282,-3.015033 0.785288,-0.926454 1.251045,-2.058133 1.867905,-3.092609 0.49453,-1.069387 1.135166,-2.04487 1.780723,-3.024377 0.553595,-0.916917 1.087339,-1.843268 1.579459,-2.7952 0.03191,-0.10087 -0.0011,-0.259997 0.09573,-0.302609 8.134811,-3.579768 11.488896,-7.655613 9.838272,-2.10533 -0.358248,1.302336 -0.777168,2.589175 -1.09011,3.903601 -0.329554,1.439488 -0.308893,2.920675 -0.444881,4.382304 -0.274296,1.2984 -0.498758,2.598383 -0.612711,3.920982 0.02537,1.375172 -0.246359,2.702351 -0.509572,4.041791 -0.173196,1.429393 -0.440354,2.839143 -0.800399,4.233219 -0.450262,1.293619 -0.851164,2.60423 -1.243015,3.916635 -0.247221,1.33858 -0.629036,2.641875 -0.951418,3.962614 -0.296857,1.364626 -0.335293,2.764983 -0.368532,4.155612 -0.02331,1.504522 -0.01664,3.009305 -0.01421,4.513948 0.01175,1.415312 -0.0809,2.826123 0.179158,4.222774 0.281209,1.010269 1.005514,1.723802 1.651563,2.504085 0.868828,0.808345 1.859992,1.459444 2.818829,2.156018 1.108694,0.675622 2.348955,1.110375 3.465525,1.763371 1.072497,0.536544 2.24993,0.73087 3.38046,1.117151 1.124773,0.344151 2.276136,0.519882 3.296401,-0.158666 3.557453,-1.828292 1.723155,-0.894175 -8.729189,4.999789 -0.155215,0.08753 0.293646,-0.201954 0.440802,-0.302442 0.460652,-0.314566 0.75421,-0.579025 1.073687,-1.037649 0.458845,-1.030949 1.108683,-1.953556 1.622695,-2.953723 0.565755,-0.95295 1.258966,-1.782726 1.630291,-2.835788 0.349747,-1.33985 0.35356,-2.736292 0.376441,-4.111776 0.06931,-1.16985 -0.137015,-2.293284 -0.836136,-3.246192 -0.885302,-0.679383 -2.100109,-0.63905 -3.166743,-0.685924 -1.487315,-0.03717 -2.97535,-0.01812 -4.462923,-0.0099 -3.281576,1.052634 -11.320671,6.08217 8.105048,-4.734436 0.139141,-0.07747 -0.264353,0.183997 -0.367414,0.305411 -0.110373,0.130032 -0.175948,0.292238 -0.263924,0.438357 0,0 -10.180323,4.727979 -10.180323,4.727979 v 0 c 1.111668,-4.725312 7.091458,-7.091492 11.757303,-7.319695 1.507857,-0.0062 3.018247,-0.02758 4.523562,0.07601 1.393254,0.145129 2.777453,0.376475 3.735425,1.503545 0.777404,1.158105 1.212752,2.463763 1.135406,3.874381 -0.0089,1.453255 -0.007,2.914769 -0.228327,4.354777 -0.283086,1.398278 -0.664054,2.009896 -1.482019,3.127766 -0.659693,0.874864 -1.04875,1.940357 -1.675188,2.844914 -0.261212,0.786117 -0.533254,1.439921 -1.278805,1.875555 -10.016546,5.852784 -6.431047,4.515852 -10.584318,6.024676 -1.283033,0.174789 -2.513703,-0.0063 -3.73091,-0.459108 -1.176616,-0.391456 -2.421107,-0.59844 -3.485793,-1.277199 -1.196655,-0.588296 -2.408021,-1.162476 -3.529298,-1.887712 -1.042099,-0.730872 -2.105417,-1.462146 -2.990244,-2.382684 -0.781651,-0.915887 -1.544635,-1.83211 -1.911954,-3.005484 -0.306501,-1.466644 -0.290515,-2.930009 -0.260119,-4.425546 -0.0028,-1.510821 -0.009,-3.021679 0.0016,-4.532481 0.01823,-1.449811 0.03545,-2.906194 0.257426,-4.342278 0.255784,-1.363838 0.78427,-2.641264 0.937514,-4.025366 0.336455,-1.341874 0.775939,-2.657396 1.208789,-3.968864 0.544515,-1.280482 0.70398,-2.71033 0.864674,-4.082862 0.213366,-1.319419 0.656297,-2.587506 0.571484,-3.940744 0.07784,-1.348194 0.199142,-2.697712 0.564978,-4.003643 0.340204,-1.447456 0.09774,-2.980925 0.430477,-4.440737 0.255085,-1.356822 0.708851,-2.645444 1.011672,-3.988485 0.109807,-0.323683 0.28254,-0.62691 0.36223,-0.959291 0.06082,-0.25364 0.04203,-0.950833 0.104061,-0.982904 9.710499,-5.020644 14.166363,-4.682072 10.070573,-4.952839 -0.697978,0.825504 -0.962123,1.883515 -1.648171,2.714419 -0.486125,1.093509 -1.390288,1.909046 -1.780985,3.055579 -0.595566,1.079263 -1.197014,2.149874 -1.78853,3.231165 -0.832964,0.844995 -1.173152,2.003329 -1.984915,2.869405 -0.692798,1.283631 -1.406403,2.54911 -2.205294,3.772165 -0.630748,1.318357 -1.244597,2.635178 -1.89466,3.946604 -0.707409,1.261512 -1.125159,2.608418 -1.637911,3.954068 -0.352565,1.188381 -0.830112,2.351461 -1.40647,3.446222 -0.320682,1.246568 -0.747043,2.44117 -0.926218,3.724396 -0.412676,1.372138 -0.578271,2.761827 -0.821849,4.175091 -0.158015,0.80409 -0.120277,0.398555 -0.113115,1.22142 0.0016,0.183861 0.160004,0.452805 0.0049,0.551585 -2.443255,1.556255 -9.598353,9.66743 -10.077741,5.25604 -0.09123,-1.209093 -0.248004,-2.412529 -0.666384,-3.558632 -0.366178,-1.238317 -0.466032,-2.547557 -0.881126,-3.779258 -0.124275,-1.304227 -0.375701,-2.577807 -0.706605,-3.845452 -0.08562,-1.245547 -0.219755,-2.491179 -0.688633,-3.661018 -0.394801,-1.154541 -0.571707,-2.377615 -1.252681,-3.427624 -0.491593,-1.41695 -1.066249,-2.798631 -1.462211,-4.249603 -0.36412,-1.563444 -0.785943,-3.105579 -0.967494,-4.706469 -0.240705,-1.739572 -0.08398,-3.506351 -0.04604,-5.25725 0.395312,-6.130025 3.506153,-5.807328 10.937738,-9.41309 1.713119,0.149502 2.460402,1.444803 2.650027,3.061262 0.222649,1.488427 0.103113,3.004489 -0.01834,4.50029 -0.189674,1.327627 -0.490863,2.611583 -1.511893,3.563078 -0.723688,1.20591 -1.471892,2.418667 -2.338649,3.526152 -0.812215,0.936683 -1.849763,1.626828 -2.683727,2.549498 -1.095859,0.620557 -2.08992,1.361065 -3.087994,2.121737 -3.434019,2.998266 -0.446157,0.445494 -10.619129,6.326938 -3.005291,1.737493 5.995096,-3.501654 8.998797,-5.241895 1.318331,-0.763794 -2.889637,1.990907 -1.771314,1.166016 -4.090572,2.948527 -8.53439,5.418989 -13.079876,7.59965 -1.418066,0.583362 -2.853129,1.123725 -4.271616,1.705012 -1.216921,0.44377 -2.461193,0.810848 -3.741094,1.019414 -1.350833,0.348268 -2.691118,0.717195 -4.057198,1.003318 -1.578456,0.485873 -3.156606,0.971375 -4.732729,1.465051 -0.858543,0.293068 -1.669492,0.625004 -2.483054,1.028364 -0.282031,0.139829 -1.112216,0.589338 -0.841262,0.429096 9.926354,-5.870451 11.532374,-6.962873 8.126598,-4.687115 -1.203192,0.710023 -2.277255,1.620348 -3.491492,2.308582 -1.309245,1.059357 -2.487798,2.288828 -3.477523,3.65537 -0.803305,1.212 -1.558544,2.398524 -1.829371,3.852754 -0.481587,1.448802 -0.689516,2.97484 -0.623044,4.499908 -0.0033,1.469629 -0.01705,2.940865 0.06646,4.408758 0.102001,1.231887 0.255032,2.460985 0.955206,3.517553 0.642696,1.014008 1.245716,1.966275 2.356552,2.539167 1.017978,0.65905 2.01395,1.368901 3.261802,1.463548 1.463648,0.08538 2.932545,0.02426 4.397992,0.03846 1.410768,-0.01998 2.841759,-0.02156 4.21778,-0.372161 0.38087,-0.13018 1.46187,-0.66776 1.114922,-0.463711 C 15.152697,82.3245 20.24764,79.448691 23.562,77.242947 c 0.920337,-0.784799 1.581754,-1.755048 2.201912,-2.783377 0.469278,-1.143566 1.198423,-2.190893 1.92994,-3.178837 0.523312,-1.075983 0.969013,-2.17552 1.425144,-3.277981 0.309706,-0.591878 0.424437,-1.202359 0.682892,-1.816142 0.166479,-0.395356 0.427395,-0.74645 0.592926,-1.142204 0.09227,-0.220591 0.138129,-0.457837 0.207196,-0.686757 0.447553,-1.268548 0.748866,-2.615764 1.084926,-3.910788 0.272622,-1.380717 0.6046,-2.733902 0.723006,-4.140782 0.280466,-1.368121 0.553818,-2.685198 0.406413,-4.098928 0.0029,-1.508461 0.0095,-3.01698 -0.0039,-4.525406 -0.02273,-1.488329 -0.05264,-2.982707 -0.294246,-4.455012 -0.282672,-1.520182 -0.761838,-2.992051 -0.960453,-4.528069 -0.27341,-1.391306 -0.358603,-2.781694 -0.537541,-4.186293 -0.263268,-1.244121 -0.742106,-2.429909 -0.848137,-3.706029 -0.311949,-1.585283 -0.493517,-3.144634 -0.364538,-4.767755 0.01172,-2.105862 0.03901,-4.212891 -0.03037,-6.318003 0,0 9.993421,-5.091902 9.993421,-5.091902 z"
       inkscape:connector-curvature="0"
       style="stroke-width:0.26458332" />
  </g>
</svg>
